<mxfile host="Electron" modified="2023-12-03T13:15:41.314Z" agent="Mozilla/5.0 (Macintosh; Intel Mac OS X 10_15_7) AppleWebKit/537.36 (KHTML, like Gecko) draw.io/22.0.0 Chrome/114.0.5735.289 Electron/25.8.3 Safari/537.36" etag="OSbDvEirGDhAhOJ0knDH" version="22.0.0" type="device">
  <diagram name="Page-1" id="aMzzHNwxFTNvt87OBJMU">
    <mxGraphModel dx="1578" dy="1058" grid="1" gridSize="10" guides="1" tooltips="1" connect="1" arrows="1" fold="1" page="1" pageScale="1" pageWidth="1169" pageHeight="827" math="0" shadow="0">
      <root>
        <mxCell id="0" />
        <mxCell id="1" parent="0" />
        <mxCell id="9DN2t-uvdhdCZYsew7W3-11" value="" style="rounded=0;whiteSpace=wrap;html=1;fillColor=#e1d5e7;strokeColor=#9673a6;" vertex="1" parent="1">
          <mxGeometry x="470" y="150" width="360" height="440" as="geometry" />
        </mxCell>
        <mxCell id="9DN2t-uvdhdCZYsew7W3-3" value="" style="rounded=0;whiteSpace=wrap;html=1;fillColor=#f5f5f5;fontColor=#333333;strokeColor=#666666;" vertex="1" parent="1">
          <mxGeometry x="347" y="150" width="123" height="440" as="geometry" />
        </mxCell>
        <mxCell id="9DN2t-uvdhdCZYsew7W3-4" value="" style="endArrow=classic;html=1;rounded=0;" edge="1" parent="1">
          <mxGeometry width="50" height="50" relative="1" as="geometry">
            <mxPoint x="330" y="610" as="sourcePoint" />
            <mxPoint x="330" y="130" as="targetPoint" />
          </mxGeometry>
        </mxCell>
        <mxCell id="9DN2t-uvdhdCZYsew7W3-5" value="" style="endArrow=classic;html=1;rounded=0;" edge="1" parent="1">
          <mxGeometry width="50" height="50" relative="1" as="geometry">
            <mxPoint x="330" y="610" as="sourcePoint" />
            <mxPoint x="850" y="610" as="targetPoint" />
          </mxGeometry>
        </mxCell>
        <mxCell id="9DN2t-uvdhdCZYsew7W3-6" value="SUPPORTING" style="text;html=1;strokeColor=none;fillColor=none;align=center;verticalAlign=middle;whiteSpace=wrap;rounded=0;fontSize=24;" vertex="1" parent="1">
          <mxGeometry x="690" y="540" width="60" height="30" as="geometry" />
        </mxCell>
        <mxCell id="9DN2t-uvdhdCZYsew7W3-8" value="&lt;font style=&quot;font-size: 24px;&quot;&gt;GENERIC&lt;/font&gt;" style="text;html=1;strokeColor=none;fillColor=none;align=center;verticalAlign=middle;whiteSpace=wrap;rounded=0;fontSize=24;horizontal=0;" vertex="1" parent="1">
          <mxGeometry x="340" y="370" width="60" height="30" as="geometry" />
        </mxCell>
        <mxCell id="9DN2t-uvdhdCZYsew7W3-9" value="Model Complexity" style="text;html=1;strokeColor=none;fillColor=none;align=center;verticalAlign=middle;whiteSpace=wrap;rounded=0;fontSize=24;" vertex="1" parent="1">
          <mxGeometry x="230" y="355" width="60" height="30" as="geometry" />
        </mxCell>
        <mxCell id="9DN2t-uvdhdCZYsew7W3-10" value="Business Differentiation" style="text;html=1;strokeColor=none;fillColor=none;align=center;verticalAlign=middle;whiteSpace=wrap;rounded=0;fontSize=24;" vertex="1" parent="1">
          <mxGeometry x="460" y="630" width="220" height="30" as="geometry" />
        </mxCell>
        <mxCell id="9DN2t-uvdhdCZYsew7W3-13" value="" style="rounded=0;whiteSpace=wrap;html=1;fillColor=#d5e8d4;strokeColor=#82b366;" vertex="1" parent="1">
          <mxGeometry x="580" y="150" width="250" height="320" as="geometry" />
        </mxCell>
        <mxCell id="9DN2t-uvdhdCZYsew7W3-7" value="&lt;font style=&quot;font-size: 24px;&quot;&gt;CORE&lt;/font&gt;" style="text;html=1;strokeColor=none;fillColor=none;align=center;verticalAlign=middle;whiteSpace=wrap;rounded=0;" vertex="1" parent="1">
          <mxGeometry x="690" y="430" width="60" height="30" as="geometry" />
        </mxCell>
        <mxCell id="9DN2t-uvdhdCZYsew7W3-14" value="" style="endArrow=none;html=1;rounded=0;dashed=1;" edge="1" parent="1">
          <mxGeometry width="50" height="50" relative="1" as="geometry">
            <mxPoint x="580" y="600" as="sourcePoint" />
            <mxPoint x="580" y="140" as="targetPoint" />
          </mxGeometry>
        </mxCell>
        <mxCell id="9DN2t-uvdhdCZYsew7W3-15" value="" style="endArrow=none;html=1;rounded=0;dashed=1;" edge="1" parent="1">
          <mxGeometry width="50" height="50" relative="1" as="geometry">
            <mxPoint x="340" y="368.99" as="sourcePoint" />
            <mxPoint x="840" y="368.82" as="targetPoint" />
          </mxGeometry>
        </mxCell>
        <mxCell id="9DN2t-uvdhdCZYsew7W3-18" value="&lt;div style=&quot;line-height: 18px;&quot;&gt;Подбор воркера под задачу&lt;/div&gt;" style="ellipse;html=1;aspect=fixed;fillColor=#f8cecc;strokeColor=#b85450;labelBackgroundColor=none;fontColor=#000000;labelPosition=center;verticalLabelPosition=top;align=center;verticalAlign=bottom;" vertex="1" parent="1">
          <mxGeometry x="730" y="200" width="30" height="30" as="geometry" />
        </mxCell>
        <mxCell id="9DN2t-uvdhdCZYsew7W3-19" value="&lt;div style=&quot;line-height: 18px;&quot;&gt;&lt;div style=&quot;line-height: 18px;&quot;&gt;&lt;span style=&quot;&quot;&gt;Найм воркеров&lt;/span&gt;&lt;/div&gt;&lt;/div&gt;" style="ellipse;html=1;aspect=fixed;fillColor=#f8cecc;strokeColor=#b85450;labelBackgroundColor=none;fontColor=#000000;labelPosition=center;verticalLabelPosition=top;align=center;verticalAlign=bottom;" vertex="1" parent="1">
          <mxGeometry x="650" y="270" width="30" height="30" as="geometry" />
        </mxCell>
        <mxCell id="9DN2t-uvdhdCZYsew7W3-20" value="&lt;div style=&quot;line-height: 18px;&quot;&gt;&lt;div style=&quot;line-height: 18px;&quot;&gt;Выполнение задач&lt;/div&gt;&lt;/div&gt;" style="ellipse;html=1;aspect=fixed;fillColor=#f8cecc;strokeColor=#b85450;labelBackgroundColor=none;fontColor=#000000;labelPosition=center;verticalLabelPosition=top;align=center;verticalAlign=bottom;" vertex="1" parent="1">
          <mxGeometry x="393.5" y="200" width="30" height="30" as="geometry" />
        </mxCell>
        <mxCell id="9DN2t-uvdhdCZYsew7W3-21" value="&lt;div style=&quot;line-height: 18px;&quot;&gt;&lt;div style=&quot;line-height: 18px;&quot;&gt;Мотивация&amp;nbsp;&lt;/div&gt;&lt;div style=&quot;line-height: 18px;&quot;&gt;менеджеров&lt;/div&gt;&lt;/div&gt;" style="ellipse;html=1;aspect=fixed;fillColor=#f8cecc;strokeColor=#b85450;labelBackgroundColor=none;fontColor=#000000;labelPosition=center;verticalLabelPosition=top;align=center;verticalAlign=bottom;" vertex="1" parent="1">
          <mxGeometry x="510" y="420" width="30" height="30" as="geometry" />
        </mxCell>
        <mxCell id="9DN2t-uvdhdCZYsew7W3-22" value="&lt;div style=&quot;line-height: 18px;&quot;&gt;&lt;div style=&quot;line-height: 18px;&quot;&gt;Повышение&amp;nbsp;&lt;/div&gt;&lt;div style=&quot;line-height: 18px;&quot;&gt;лояльности&amp;nbsp;&lt;/div&gt;&lt;div style=&quot;line-height: 18px;&quot;&gt;клиентов&lt;/div&gt;&lt;/div&gt;" style="ellipse;html=1;aspect=fixed;fillColor=#f8cecc;strokeColor=#b85450;labelBackgroundColor=none;fontColor=#000000;labelPosition=center;verticalLabelPosition=top;align=center;verticalAlign=bottom;" vertex="1" parent="1">
          <mxGeometry x="393.5" y="490" width="30" height="30" as="geometry" />
        </mxCell>
      </root>
    </mxGraphModel>
  </diagram>
</mxfile>
